# xmcd CD database file
#
# Track frame offsets:
#	150
#	17972
#	38110
#	53881
#	70098
#	87036
#	103305
#	120968
#	140917
#	158071
#	175651
#	192296
#	216756
#	238657
#
# Disc length: 3462 seconds
#
# Revision: 0
# Processed by: cddbd v1.5.2PL0 Copyright (c) Steve Scherf et al.
# Submitted via: CDex 1.51
#
DISCID=bf0d840e
DTITLE=LeAnn Rimes - Family
DYEAR=2007
DGENRE=Country
TTITLE0=Family
TTITLE1=Nothin' Better To Do
TTITLE2=Fight
TTITLE3=Good Friend and a Glass of Wine
TTITLE4=Something I Can Feel
TTITLE5=I Want You With Me
TTITLE6=Doesn't Everybody
TTITLE7=Nothing Wrong
TTITLE8=Pretty Things
TTITLE9=Upper Hand
TTITLE10=One Day Too Long
TTITLE11=What I Cannot Change
TTITLE12=Till We Ain't Strangers Anymore
TTITLE13=When You Love Someone Like That
EXTD=YEAR: 2007
EXTT0=
EXTT1=
EXTT2=
EXTT3=
EXTT4=
EXTT5=
EXTT6=
EXTT7=
EXTT8=
EXTT9=
EXTT10=
EXTT11=
EXTT12=
EXTT13=
PLAYORDER=
